<?xml version="1.0" standalone="no"?>
<!DOCTYPE svg PUBLIC "-//W3C//DTD SVG 20010904//EN"
 "http://www.w3.org/TR/2001/REC-SVG-20010904/DTD/svg10.dtd">
<svg version="1.0" xmlns="http://www.w3.org/2000/svg"
 width="500.000000pt" height="500.000000pt" viewBox="0 0 500.000000 500.000000"
 preserveAspectRatio="xMidYMid meet">
<metadata>
Created by potrace 1.14, written by Peter Selinger 2001-2017
</metadata>
<g transform="translate(0.000000,500.000000) scale(0.100000,-0.100000)"
fill="#000000" stroke="none">
<path d="M0 2500 l0 -2500 2500 0 2500 0 0 2500 0 2500 -2500 0 -2500 0 0
-2500z m1005 1071 l92 -313 31 108 c18 60 58 201 91 314 l58 205 167 3 166 2
0 -450 0 -450 -116 0 -116 0 4 310 3 309 -83 -297 c-46 -163 -85 -303 -87
-309 -3 -10 -37 -13 -124 -13 l-120 0 -9 33 c-5 17 -42 149 -83 291 l-74 260
-3 -292 -2 -292 -110 0 -110 0 0 450 0 450 166 -2 167 -3 92 -314z m1272 93
c106 -54 153 -148 153 -306 l0 -88 -215 0 c-118 0 -215 -2 -215 -5 0 -26 34
-77 62 -92 46 -25 172 -22 252 6 33 12 63 21 68 21 4 0 8 -39 8 -86 l0 -85
-45 -20 c-67 -30 -202 -43 -294 -30 -138 21 -217 76 -270 191 -22 48 -25 68
-26 160 0 118 17 182 65 248 65 90 150 124 297 119 90 -3 110 -7 160 -33z
m808 25 c24 -6 62 -27 85 -46 l41 -36 32 31 c41 40 104 62 176 62 79 0 126
-16 172 -57 63 -57 69 -93 69 -395 l0 -258 -124 0 -125 0 -3 234 c-3 215 -5
236 -22 255 -15 17 -29 21 -59 19 -78 -6 -97 -72 -97 -340 l0 -168 -125 0
-125 0 0 225 c0 267 -5 285 -70 285 -85 0 -100 -47 -100 -312 l0 -198 -125 0
-125 0 0 350 0 350 94 0 94 0 13 -37 c6 -21 13 -41 15 -44 2 -4 21 10 42 30
21 21 54 42 73 48 46 15 140 16 194 2z m1218 -22 c112 -55 157 -142 157 -303
l0 -94 -210 0 c-201 0 -210 -1 -210 -19 0 -32 48 -80 92 -92 50 -13 143 -4
218 22 30 10 58 19 62 19 4 0 8 -40 8 -90 l0 -89 -62 -19 c-133 -41 -296 -36
-396 11 -65 30 -126 96 -153 165 -31 80 -31 232 -1 315 37 103 112 171 216
198 17 4 74 7 126 6 82 -2 104 -7 153 -30z m357 -1697 l0 -790 -2160 0 -2160
0 0 790 0 790 2160 0 2160 0 0 -790z"/>
<path d="M791 3594 c0 -11 3 -14 6 -6 3 7 2 16 -1 19 -3 4 -6 -2 -5 -13z"/>
<path d="M2046 3508 c-14 -13 -28 -35 -32 -50 l-6 -28 96 0 c91 0 96 1 96 21
0 11 -13 34 -29 50 -37 37 -88 39 -125 7z"/>
<path d="M4089 3515 c-21 -11 -49 -58 -49 -81 0 -2 45 -4 100 -4 108 0 106 -2
78 56 -20 42 -81 55 -129 29z"/>
<path d="M1340 1965 l0 -475 120 0 120 0 0 205 c0 165 3 212 16 245 24 59 85
86 136 59 41 -22 48 -65 48 -294 l0 -215 115 0 115 0 0 263 c0 255 -1 263 -24
313 -38 82 -110 124 -213 124 -67 0 -117 -20 -167 -68 l-38 -37 7 178 7 177
-121 0 -121 0 0 -475z"/>
<path d="M3020 1965 l0 -475 93 0 93 0 17 35 c9 19 22 35 28 35 6 0 26 -13 45
-29 123 -109 310 -39 364 136 26 85 29 246 6 327 -57 196 -244 260 -379 128
l-37 -36 6 177 7 177 -121 0 -122 0 0 -475z m388 22 c29 -30 42 -78 42 -147 0
-69 -15 -125 -41 -151 -27 -27 -81 -25 -116 5 -28 24 -28 25 -28 146 0 121 0
122 28 146 37 32 86 32 115 1z"/>
<path d="M2182 1918 c4 -291 7 -310 71 -376 79 -82 261 -80 345 4 19 19 37 34
41 34 4 0 14 -19 22 -42 l16 -43 86 -3 87 -3 0 346 0 345 -114 0 -114 0 -4
-207 c-3 -184 -5 -213 -23 -248 -37 -74 -133 -83 -166 -17 -9 19 -14 92 -17
250 l-4 222 -115 0 -114 0 3 -262z"/>
</g>
</svg>
